<?xml version="1.0" encoding="UTF-8"?>
<svg width="262px" height="262px" viewBox="0 0 262 262" version="1.1" xmlns="http://www.w3.org/2000/svg" xmlns:xlink="http://www.w3.org/1999/xlink">
    <!-- Generator: Sketch 59.1 (86144) - https://sketch.com -->
    <title>platform</title>
    <desc>Created with Sketch.</desc>
    <g id="Page-1" stroke="none" stroke-width="1" fill="none" fill-rule="evenodd">
        <g id="Technology-Page" transform="translate(-749.000000, -1077.000000)">
            <g id="HOW-IT-WORKS" transform="translate(1.000000, 553.000000)">
                <g id="Platform" transform="translate(749.000000, 525.000000)">
                    <g id="platform">
                        <rect id="Rectangle" stroke-opacity="0.39" stroke="#D2DDE5" stroke-width="0.788298152" fill="#FFFFFF" fill-rule="nonzero" stroke-linejoin="round" x="0" y="0" width="260" height="260" rx="18.9191556"></rect>
                        <rect id="Rectangle" stroke-opacity="0.2" stroke="#009FD4" stroke-width="2.36489446" fill-opacity="0.08" fill="#009FD4" fill-rule="nonzero" stroke-linejoin="round" x="6.84210526" y="6.84210526" width="246.315789" height="246.315789" rx="12.6127704"></rect>
                        <g id="Group" transform="translate(27.368421, 26.684211)" fill="#FFFFFF" fill-rule="nonzero" stroke="#000000" stroke-linejoin="round" stroke-width="1.5765963">
                            <path d="M93.6855263,30.2284211 C93.6957895,29.9171053 93.7094737,29.6064737 93.7094737,29.2924211 C93.659471,16.1450616 84.6880503,4.71053153 71.930196,1.53362854 C59.1723416,-1.64327445 45.886326,4.24880986 39.6766842,15.8374211 C34.3123376,12.643036 27.5977822,12.7793911 22.3675438,16.1889244 C17.1373054,19.5984577 14.3028924,25.6869674 15.0608421,31.8842105 C4.65058671,35.6037423 -1.56474565,46.2834676 0.343835288,57.1722532 C2.25241622,68.0610388 11.7295057,75.9902042 22.7842105,75.9475805 L85.0309474,75.9475805 C96.4383988,75.9953466 106.255836,67.8967482 108.3776,56.6882528 C110.499364,45.4797574 104.32124,34.3532055 93.6855263,30.2284211 Z" id="path"></path>
                        </g>
                        <g id="path-link" transform="translate(27.368421, 26.684211)" stroke="#009FD4" stroke-linejoin="round" stroke-width="1.5765963">
                            <path d="M93.6855263,30.2284211 C93.6957895,29.9171053 93.7094737,29.6064737 93.7094737,29.2924211 C93.659471,16.1450616 84.6880503,4.71053153 71.930196,1.53362854 C59.1723416,-1.64327445 45.886326,4.24880986 39.6766842,15.8374211 C34.3123376,12.643036 27.5977822,12.7793911 22.3675438,16.1889244 C17.1373054,19.5984577 14.3028924,25.6869674 15.0608421,31.8842105 C4.65058671,35.6037423 -1.56474565,46.2834676 0.343835288,57.1722532 C2.25241622,68.0610388 11.7295057,75.9902042 22.7842105,75.9475805 L85.0309474,75.9475805 C96.4383988,75.9953466 106.255836,67.8967482 108.3776,56.6882528 C110.499364,45.4797574 104.32124,34.3532055 93.6855263,30.2284211 Z" id="path"></path>
                        </g>
                        <g id="Group" transform="translate(20.526316, 82.105263)" fill="#FFFFFF" fill-rule="nonzero" stroke="#000000" stroke-linejoin="round" stroke-width="1.5765963">
                            <rect id="rect-4" x="0" y="0" width="218.947368" height="58.1578947" rx="6.30638522"></rect>
                        </g>
                        <g id="rect-4-link" transform="translate(20.526316, 82.105263)" stroke="#009FD4" stroke-linejoin="round" stroke-width="1.5765963">
                            <rect id="rect-4" x="0" y="0" width="218.947368" height="58.1578947" rx="6.30638522"></rect>
                        </g>
                        <rect id="Rectangle" fill-opacity="0.11" fill="#009FD4" fill-rule="nonzero" x="87.5789474" y="83.4736842" width="1" height="54.7368421"></rect>
                        <path d="M97.8421053,99.8947368 L121.105263,99.8947368 C122.2389,99.8947368 123.157895,100.813731 123.157895,101.947368 C123.157895,103.081006 122.2389,104 121.105263,104 L97.8421053,104 C96.7084681,104 95.7894737,103.081006 95.7894737,101.947368 C95.7894737,100.813731 96.7084681,99.8947368 97.8421053,99.8947368 Z M97.8421053,112.210526 L223.736842,112.210526 C224.870479,112.210526 225.789474,113.129521 225.789474,114.263158 C225.789474,115.396795 224.870479,116.315789 223.736842,116.315789 L97.8421053,116.315789 C96.7084681,116.315789 95.7894737,115.396795 95.7894737,114.263158 C95.7894737,113.129521 96.7084681,112.210526 97.8421053,112.210526 Z M97.8421053,121.789474 L189.526316,121.789474 C190.659953,121.789474 191.578947,122.708468 191.578947,123.842105 C191.578947,124.975742 190.659953,125.894737 189.526316,125.894737 L97.8421053,125.894737 C96.7084681,125.894737 95.7894737,124.975742 95.7894737,123.842105 C95.7894737,122.708468 96.7084681,121.789474 97.8421053,121.789474 Z" id="Shape" fill-opacity="0.3" fill="#009ED4"></path>
                        <path d="M56.4473684,95.7894737 C64.9496468,95.7894737 71.8421053,102.681932 71.8421053,111.184211 C71.8421053,119.686489 64.9496468,126.578947 56.4473684,126.578947 C47.94509,126.578947 41.0526316,119.686489 41.0526316,111.184211 C41.0526316,102.681932 47.94509,95.7894737 56.4473684,95.7894737 Z M56.4473684,97.5109474 C63.9984362,97.5109474 70.1199473,103.63223 70.1199473,111.183298 C70.1199473,118.734366 63.9988923,124.856105 56.4478245,124.856105 C48.8967568,124.856105 42.7751673,118.735278 42.7747895,111.184211 C42.7747895,107.557899 44.2150276,104.080049 46.7791532,101.515795 C49.3432788,98.951541 52.8210565,97.5109474 56.4473684,97.5109474 L56.4473684,97.5109474 Z M56.4473684,103.315789 L56.4473684,103.315789 C57.392066,103.315789 58.1578947,104.081618 58.1578947,105.026316 L58.1578947,112.552632 C58.1578947,113.006291 57.9776791,113.44137 57.6568932,113.762156 C57.3361073,114.082942 56.9010282,114.263158 56.4473684,114.263158 L56.4473684,114.263158 C55.5026708,114.263158 54.7368421,113.497329 54.7368421,112.552632 L54.7368421,105.026316 C54.7368421,104.081618 55.5026708,103.315789 56.4473684,103.315789 L56.4473684,103.315789 Z M56.4473684,115.802632 C57.294737,115.814308 57.9733244,116.508638 57.9655671,117.356051 C57.9578098,118.203465 57.2666252,118.885256 56.4191849,118.881433 C55.5717446,118.877579 54.8867646,118.189554 54.8866842,117.342105 C54.8927097,116.486091 55.5913522,115.796944 56.4473684,115.802632 Z" id="Shape" fill="#FD5E06"></path>
                        <g id="Group" transform="translate(171.052632, 147.105263)" fill="#FFFFFF" fill-rule="nonzero" stroke="#000000" stroke-linejoin="round" stroke-width="1.5765963">
                            <rect id="rect-3" x="0" y="0" width="68.4210526" height="78.6842105" rx="6.30638522"></rect>
                        </g>
                        <g id="rect-3-link" transform="translate(171.052632, 147.105263)" stroke="#009ED4" stroke-linejoin="round" stroke-width="1.5765963">
                            <rect id="rect-3" x="0" y="0" width="68.4210526" height="78.6842105" rx="6.30638522"></rect>
                        </g>
                        <path d="M187.473684,172.421053 L189.526316,172.421053 C190.659953,172.421053 191.578947,173.340047 191.578947,174.473684 L191.578947,179.947368 C191.578947,181.081006 190.659953,182 189.526316,182 L187.473684,182 C186.340047,182 185.421053,181.081006 185.421053,179.947368 L185.421053,174.473684 C185.421053,173.340047 186.340047,172.421053 187.473684,172.421053 Z M196.368421,161.473684 L198.421053,161.473684 C199.55469,161.473684 200.473684,162.392679 200.473684,163.526316 L200.473684,179.947368 C200.473684,181.081006 199.55469,182 198.421053,182 L196.368421,182 C195.234784,182 194.315789,181.081006 194.315789,179.947368 L194.315789,163.526316 C194.315789,162.392679 195.234784,161.473684 196.368421,161.473684 L196.368421,161.473684 Z M205.263158,166.947368 L207.315789,166.947368 C208.449427,166.947368 209.368421,167.866363 209.368421,169 L209.368421,179.947368 C209.368421,181.081006 208.449427,182 207.315789,182 L205.263158,182 C204.129521,182 203.210526,181.081006 203.210526,179.947368 L203.210526,169 C203.210526,167.866363 204.129521,166.947368 205.263158,166.947368 Z" id="Shape" stroke="#FD5E06" stroke-width="1.5765963" fill-opacity="0" fill="#FD5E06" stroke-linejoin="round"></path>
                        <path d="M186.789474,192.947368 L210.052632,192.947368 C211.186269,192.947368 212.105263,193.866363 212.105263,195 C212.105263,196.133637 211.186269,197.052632 210.052632,197.052632 L186.789474,197.052632 C185.655837,197.052632 184.736842,196.133637 184.736842,195 C184.736842,193.866363 185.655837,192.947368 186.789474,192.947368 Z M186.789474,201.157895 L223.736842,201.157895 C224.870479,201.157895 225.789474,202.076889 225.789474,203.210526 C225.789474,204.344163 224.870479,205.263158 223.736842,205.263158 L186.789474,205.263158 C185.655837,205.263158 184.736842,204.344163 184.736842,203.210526 C184.736842,202.076889 185.655837,201.157895 186.789474,201.157895 Z M186.789474,209.368421 L223.736842,209.368421 C224.870479,209.368421 225.789474,210.287416 225.789474,211.421053 C225.789474,212.55469 224.870479,213.473684 223.736842,213.473684 L186.789474,213.473684 C185.655837,213.473684 184.736842,212.55469 184.736842,211.421053 C184.736842,210.287416 185.655837,209.368421 186.789474,209.368421 Z" id="Shape" fill-opacity="0.3" fill="#009ED4"></path>
                        <g id="Group" transform="translate(95.789474, 147.105263)" fill="#FFFFFF" fill-rule="nonzero" stroke="#000000" stroke-linejoin="round" stroke-width="1.5765963">
                            <rect id="rect-2" x="0" y="0" width="68.4210526" height="78.6842105" rx="6.30638522"></rect>
                        </g>
                        <g id="rect-2-link" transform="translate(95.789474, 147.105263)" stroke="#009ED4" stroke-linejoin="round" stroke-width="1.5765963">
                            <rect id="rect-2" x="0" y="0" width="68.4210526" height="78.6842105" rx="6.30638522"></rect>
                        </g>
                        <path d="M111.526316,192.947368 L134.789474,192.947368 C135.923111,192.947368 136.842105,193.866363 136.842105,195 C136.842105,196.133637 135.923111,197.052632 134.789474,197.052632 L111.526316,197.052632 C110.392679,197.052632 109.473684,196.133637 109.473684,195 C109.473684,193.866363 110.392679,192.947368 111.526316,192.947368 Z M111.526316,201.157895 L148.473684,201.157895 C149.607321,201.157895 150.526316,202.076889 150.526316,203.210526 C150.526316,204.344163 149.607321,205.263158 148.473684,205.263158 L111.526316,205.263158 C110.392679,205.263158 109.473684,204.344163 109.473684,203.210526 C109.473684,202.076889 110.392679,201.157895 111.526316,201.157895 Z M111.526316,209.368421 L148.473684,209.368421 C149.607321,209.368421 150.526316,210.287416 150.526316,211.421053 C150.526316,212.55469 149.607321,213.473684 148.473684,213.473684 L111.526316,213.473684 C110.392679,213.473684 109.473684,212.55469 109.473684,211.421053 C109.473684,210.287416 110.392679,209.368421 111.526316,209.368421 Z" id="Shape" fill-opacity="0.3" fill="#009ED4"></path>
                        <path d="M115.621316,184.052632 C114.716772,184.052632 113.824679,183.841791 113.015842,183.436842 C112.828182,183.343524 112.69696,183.165527 112.663319,182.958663 C112.629678,182.751798 112.697737,182.541394 112.846158,182.393421 L115.002105,180.236105 C114.645025,179.486596 114.041088,178.882659 113.291579,178.525579 L111.135632,180.682895 C110.987295,180.830961 110.776827,180.898698 110.569974,180.864945 C110.363121,180.831193 110.185102,180.700066 110.091526,180.512526 C109.009677,178.34299 109.380417,175.730698 111.023195,173.947844 C112.665973,172.164991 115.239274,171.582209 117.489895,172.483316 L121.168211,168.803632 C120.267538,166.553171 120.85005,163.980299 122.632233,162.337251 C124.414417,160.694204 127.026058,160.322291 129.196053,161.402526 C129.383745,161.496178 129.514923,161.674405 129.548549,161.881451 C129.582175,162.088498 129.514144,162.299078 129.365737,162.447316 L127.209105,164.603947 C127.565862,165.353685 128.169894,165.957717 128.919632,166.314474 L131.076263,164.157842 C131.224368,164.009429 131.434861,163.941383 131.641816,163.975017 C131.848771,164.00865 132.026883,164.13985 132.120368,164.327526 C133.201854,166.497116 132.831008,169.109202 131.188383,170.892041 C129.545759,172.67488 126.972721,173.25797 124.722,172.357421 L121.043684,176.036421 C121.763056,177.836514 121.543423,179.876128 120.457306,181.481799 C119.371189,183.087471 117.559827,184.050398 115.621316,184.052632 Z M114.480737,182.601421 C116.20207,183.047231 118.02518,182.44674 119.144639,181.065239 C120.264098,179.683738 120.473658,177.775753 119.680737,176.184211 C119.555106,175.933154 119.604462,175.62985 119.803211,175.431579 L124.113737,171.116947 C124.31211,170.918398 124.615278,170.869064 124.866368,170.994474 C126.457802,171.786572 128.365171,171.576607 129.746194,170.457296 C131.127217,169.337985 131.727597,167.515437 131.282211,165.794474 L129.534053,167.542632 C129.358242,167.718625 129.097682,167.779387 128.862158,167.699316 C127.436115,167.205676 126.315529,166.084838 125.822211,164.658684 C125.741966,164.423289 125.802459,164.162748 125.978211,163.986789 L127.727053,162.237947 C126.00572,161.792138 124.182609,162.392628 123.06315,163.774129 C121.943691,165.15563 121.734132,167.063615 122.527053,168.655158 C122.652857,168.906071 122.60378,169.209357 122.405263,169.407789 L118.094737,173.722421 C117.896568,173.921369 117.593128,173.970747 117.342105,173.844895 C115.750671,173.052796 113.843303,173.262762 112.46228,174.382073 C111.081256,175.501383 110.480876,177.323932 110.926263,179.044895 L112.675105,177.296053 C112.850734,177.119707 113.111639,177.059131 113.347,177.140053 C114.77291,177.633281 115.893356,178.753979 116.386263,180.18 C116.466845,180.415378 116.406311,180.676101 116.230263,180.851895 L114.480737,182.601421 Z" id="Shape" fill="#FD5E06"></path>
                        <g id="Group" transform="translate(20.526316, 147.105263)" fill="#FFFFFF" fill-rule="nonzero" stroke="#000000" stroke-linejoin="round" stroke-width="1.5765963">
                            <rect id="rect" x="0" y="0" width="68.4210526" height="78.6842105" rx="6.30638522"></rect>
                        </g>
                        <g id="rect-link" transform="translate(20.526316, 147.105263)" stroke="#009ED4" stroke-linejoin="round" stroke-width="1.5765963">
                            <rect id="rect" x="0" y="0" width="68.4210526" height="78.6842105" rx="6.30638522"></rect>
                        </g>
                        <path d="M36.2631579,192.947368 L59.5263158,192.947368 C60.6599529,192.947368 61.5789474,193.866363 61.5789474,195 C61.5789474,196.133637 60.6599529,197.052632 59.5263158,197.052632 L36.2631579,197.052632 C35.1295208,197.052632 34.2105263,196.133637 34.2105263,195 C34.2105263,193.866363 35.1295208,192.947368 36.2631579,192.947368 Z M36.2631579,201.157895 L73.2105263,201.157895 C74.3441634,201.157895 75.2631579,202.076889 75.2631579,203.210526 C75.2631579,204.344163 74.3441634,205.263158 73.2105263,205.263158 L36.2631579,205.263158 C35.1295208,205.263158 34.2105263,204.344163 34.2105263,203.210526 C34.2105263,202.076889 35.1295208,201.157895 36.2631579,201.157895 Z M36.2631579,209.368421 L73.2105263,209.368421 C74.3441634,209.368421 75.2631579,210.287416 75.2631579,211.421053 C75.2631579,212.55469 74.3441634,213.473684 73.2105263,213.473684 L36.2631579,213.473684 C35.1295208,213.473684 34.2105263,212.55469 34.2105263,211.421053 C34.2105263,210.287416 35.1295208,209.368421 36.2631579,209.368421 Z" id="Shape" fill-opacity="0.3" fill="#009ED4"></path>
                        <rect id="Rectangle" fill="#009ED4" fill-rule="nonzero" x="95.7894737" y="99.8947368" width="27.3684211" height="4.10526316" rx="2.05263158"></rect>
                        <rect id="Rectangle" fill="#009ED4" fill-rule="nonzero" x="184.736842" y="192.947368" width="27.3684211" height="4.10526316" rx="2.05263158"></rect>
                        <rect id="Rectangle" fill="#009ED4" fill-rule="nonzero" x="109.473684" y="192.947368" width="27.3684211" height="4.10526316" rx="2.05263158"></rect>
                        <rect id="Rectangle" fill="#009ED4" fill-rule="nonzero" x="34.2105263" y="192.947368" width="27.3684211" height="4.10526316" rx="2.05263158"></rect>
                        <path d="M43.6054211,170.280158 L40.6633158,170.280158 C40.2688101,170.280158 39.949,169.960348 39.949,169.565842 C39.949,169.171336 40.2688101,168.851526 40.6633158,168.851526 L43.6054211,168.851526 C43.9999268,168.851526 44.3197368,169.171336 44.3197368,169.565842 C44.3197368,169.960348 43.9999268,170.280158 43.6054211,170.280158 Z M45.2584737,177.137316 L39.0116316,177.137316 C38.6171259,177.137316 38.2973158,176.817506 38.2973158,176.423 C38.2973158,176.028494 38.6171259,175.708684 39.0116316,175.708684 L45.2584737,175.708684 C45.5136742,175.708684 45.7494892,175.844832 45.8770894,176.065842 C46.0046897,176.286852 46.0046897,176.559148 45.8770894,176.780158 C45.7494892,177.001168 45.5136742,177.137316 45.2584737,177.137316 L45.2584737,177.137316 Z M45.2584737,180.594632 L39.0116316,180.594632 C38.6171259,180.594632 38.2973158,180.274822 38.2973158,179.880316 C38.2973158,179.48581 38.6171259,179.166 39.0116316,179.166 L45.2584737,179.166 C45.5136741,179.166 45.7494891,179.302148 45.8770893,179.523158 C46.0046895,179.744168 46.0046895,180.016464 45.8770893,180.237474 C45.7494891,180.458484 45.5136741,180.594632 45.2584737,180.594632 Z M43.9728421,184.052633 L40.3,184.052633 C39.9054943,184.052633 39.5856842,183.732822 39.5856842,183.338316 C39.5856842,182.94381 39.9054943,182.624 40.3,182.624 L43.9755789,182.624 C44.3700847,182.624756 44.6892821,182.945178 44.6885277,183.339684 C44.6877706,183.73419 44.3673478,184.053387 43.9728421,184.052633 Z M42.1350526,177.138758 C41.9428767,177.141426 41.7574848,177.067703 41.6196709,176.933739 C41.4818571,176.799774 41.4029133,176.616545 41.4002105,176.424368 L41.4002105,169.850474 C41.4002105,169.444632 41.7292105,169.115632 42.1350526,169.115632 C42.5408947,169.115632 42.8698947,169.444632 42.8698947,169.850474 L42.8698947,176.424368 C42.8635192,176.824022 42.5347162,177.143028 42.1350526,177.137316 L42.1350526,177.138758 Z M47.3309474,173.854479 C47.1475032,173.855147 46.970306,173.787875 46.8335263,173.665632 C46.6904444,173.539623 46.6049565,173.3607 46.5968206,173.170216 C46.5886846,172.979731 46.6586048,172.794171 46.7904211,172.656421 C47.8738389,171.521049 48.4789631,170.012403 48.4804211,168.443053 C48.3855751,164.975981 45.547658,162.214637 42.0792895,162.214637 C38.610921,162.214637 35.7730039,164.975981 35.6781579,168.443053 C35.6802451,169.96141 36.2470294,171.424708 37.2682632,172.548316 C37.3964425,172.689533 37.4615823,172.876862 37.4486733,173.067139 C37.4357644,173.257417 37.3459202,173.434231 37.1998421,173.556842 C36.892329,173.815253 36.4360864,173.786643 36.1632632,173.491842 C34.907921,172.108466 34.2118972,170.307682 34.2105263,168.439632 C34.329728,164.178415 37.8184582,160.785912 42.0813421,160.785912 C46.344226,160.785912 49.8329562,164.178415 49.9521579,168.439632 C49.950498,170.369139 49.2064382,172.224021 47.8742105,173.619789 C47.7328855,173.768672 47.5362207,173.852391 47.3309474,173.851053 L47.3309474,173.854479 Z" id="Shape" fill="#FD5E06"></path>
                    </g>
                </g>
            </g>
        </g>
    </g>
</svg>