<?xml version="1.0" encoding="UTF-8"?>
<svg width="262px" height="262px" viewBox="0 0 262 262" version="1.1" xmlns="http://www.w3.org/2000/svg" xmlns:xlink="http://www.w3.org/1999/xlink">
    <!-- Generator: Sketch 59.1 (86144) - https://sketch.com -->
    <title>analysis</title>
    <desc>Created with Sketch.</desc>
    <g id="Page-1" stroke="none" stroke-width="1" fill="none" fill-rule="evenodd">
        <g id="Technology-Page" transform="translate(-134.000000, -767.000000)">
            <g id="HOW-IT-WORKS" transform="translate(1.000000, 553.000000)">
                <g id="Analysis" transform="translate(134.000000, 215.000000)">
                    <g id="analysis">
                        <rect id="Rectangle" stroke-opacity="0.39" stroke="#D2DDE5" stroke-width="0.788298152" fill="#FFFFFF" fill-rule="nonzero" stroke-linejoin="round" x="0" y="0" width="260" height="260" rx="18.9191556"></rect>
                        <rect id="Rectangle" stroke-opacity="0.2" stroke="#009FD4" stroke-width="0.788298152" fill-opacity="0.08" fill="#009FD4" fill-rule="nonzero" stroke-linejoin="round" x="6.84210526" y="6.84210526" width="246.315789" height="246.315789" rx="12.6127704"></rect>
                        <path d="M129.315789,6.84210526 L130.684211,6.84210526 L130.684211,253.157895 L129.315789,253.157895 L129.315789,6.84210526 Z M88.2631579,6.84210526 L89.6315789,6.84210526 L89.6315789,253.157895 L88.2631579,253.157895 L88.2631579,6.84210526 Z M47.2105263,6.84210526 L48.5789474,6.84210526 L48.5789474,253.157895 L47.2105263,253.157895 L47.2105263,6.84210526 Z M211.421053,6.84210526 L212.789474,6.84210526 L212.789474,253.157895 L211.421053,253.157895 L211.421053,6.84210526 Z M170.368421,6.84210526 L171.736842,6.84210526 L171.736842,253.157895 L170.368421,253.157895 L170.368421,6.84210526 Z M6.84210526,129.315789 L253.157895,129.315789 L253.157895,130.684211 L6.84210526,130.684211 L6.84210526,129.315789 Z M6.84210526,170.368421 L253.157895,170.368421 L253.157895,171.736842 L6.84210526,171.736842 L6.84210526,170.368421 Z M6.84210526,211.421053 L253.157895,211.421053 L253.157895,212.789474 L6.84210526,212.789474 L6.84210526,211.421053 Z M6.84210526,47.2105263 L253.157895,47.2105263 L253.157895,48.5789474 L6.84210526,48.5789474 L6.84210526,47.2105263 Z M6.84210526,88.2631579 L253.157895,88.2631579 L253.157895,89.6315789 L6.84210526,89.6315789 L6.84210526,88.2631579 Z" id="Shape" fill-opacity="0.12" fill="#009FD4"></path>
                        <g id="Group" transform="translate(140.947368, 66.368421)" fill="#FFFFFF" fill-rule="nonzero" stroke="#000000" stroke-linejoin="round" stroke-width="1.5765963">
                            <rect id="rect-3" x="0" y="0" width="98.5263158" height="105.368421" rx="6.30638522"></rect>
                        </g>
                        <g id="rect-3-link" transform="translate(140.947368, 66.368421)" stroke="#009ED4" stroke-linejoin="round" stroke-width="1.5765963">
                            <rect id="rect-3" x="0" y="0" width="98.5263158" height="105.368421" rx="6.30638522"></rect>
                        </g>
                        <path d="M151.210526,137.526316 L159.421053,137.526316 C160.55469,137.526316 161.473684,138.44531 161.473684,139.578947 L161.473684,143.684211 C161.473684,144.817848 160.55469,145.736842 159.421053,145.736842 L151.210526,145.736842 C150.076889,145.736842 149.157895,144.817848 149.157895,143.684211 L149.157895,139.578947 C149.157895,138.44531 150.076889,137.526316 151.210526,137.526316 L151.210526,137.526316 Z M165.578947,121.105263 L173.789474,121.105263 C174.923111,121.105263 175.842105,122.024258 175.842105,123.157895 L175.842105,143.684211 C175.842105,144.817848 174.923111,145.736842 173.789474,145.736842 L165.578947,145.736842 C164.44531,145.736842 163.526316,144.817848 163.526316,143.684211 L163.526316,123.157895 C163.526316,122.024258 164.44531,121.105263 165.578947,121.105263 L165.578947,121.105263 Z M179.947368,104.684211 L188.157895,104.684211 C189.291532,104.684211 190.210526,105.603205 190.210526,106.736842 L190.210526,143.684211 C190.210526,144.817848 189.291532,145.736842 188.157895,145.736842 L179.947368,145.736842 C178.813731,145.736842 177.894737,144.817848 177.894737,143.684211 L177.894737,106.736842 C177.894737,105.603205 178.813731,104.684211 179.947368,104.684211 Z M223.052632,132.052632 L231.263158,132.052632 C232.396795,132.052632 233.315789,132.971626 233.315789,134.105263 L233.315789,143.684211 C233.315789,144.817848 232.396795,145.736842 231.263158,145.736842 L223.052632,145.736842 C221.918994,145.736842 221,144.817848 221,143.684211 L221,134.105263 C221,132.971626 221.918994,132.052632 223.052632,132.052632 Z" id="Shape" fill="#C2E8F4"></path>
                        <path d="M194.315789,84.1578947 L202.526316,84.1578947 C203.659953,84.1578947 204.578947,85.0768892 204.578947,86.2105263 L204.578947,143.684211 C204.578947,144.817848 203.659953,145.736842 202.526316,145.736842 L194.315789,145.736842 C193.182152,145.736842 192.263158,144.817848 192.263158,143.684211 L192.263158,86.2105263 C192.263158,85.0768892 193.182152,84.1578947 194.315789,84.1578947 Z M208.684211,112.894737 L216.894737,112.894737 C218.028374,112.894737 218.947368,113.813731 218.947368,114.947368 L218.947368,143.684211 C218.947368,144.817848 218.028374,145.736842 216.894737,145.736842 L208.684211,145.736842 C207.550573,145.736842 206.631579,144.817848 206.631579,143.684211 L206.631579,114.947368 C206.631579,113.813731 207.550573,112.894737 208.684211,112.894737 Z" id="Shape" fill="#FE6A02"></path>
                        <path d="M147.789474,78.6842105 L149.157895,78.6842105 L149.157895,162.842105 L147.789474,162.842105 L147.789474,78.6842105 Z M147.789474,119.736842 L151.894737,119.736842 L151.894737,121.105263 L147.789474,121.105263 L147.789474,119.736842 Z" id="Shape" fill="#009ED4"></path>
                        <polygon id="Shape" fill="#009ED4" points="149.157895 151.210526 233.315789 151.210526 233.315789 152.578947 149.157895 152.578947"></polygon>
                        <g id="Group" transform="translate(20.526316, 39.000000)" fill="#FFFFFF" fill-rule="nonzero" stroke="#000000" stroke-linejoin="round" stroke-width="1.5765963">
                            <rect id="rect-2" x="0" y="0" width="98.5263158" height="105.368421" rx="6.30638522"></rect>
                        </g>
                        <g id="rect-2-link" transform="translate(20.526316, 39.000000)" stroke="#009ED4" stroke-linejoin="round" stroke-width="1.5765963">
                            <rect id="rect-2" x="0" y="0" width="98.5263158" height="105.368421" rx="6.30638522"></rect>
                        </g>
                        <path d="M27.3684211,51.3157895 L28.7368421,51.3157895 L28.7368421,125.210526 L27.3684211,125.210526 L27.3684211,51.3157895 Z M28.7368421,123.842105 L112.894737,123.842105 L112.894737,125.210526 L28.7368421,125.210526 L28.7368421,123.842105 Z M99.2105263,123.842105 L100.578947,123.842105 L100.578947,127.947368 L99.2105263,127.947368 L99.2105263,123.842105 Z M111.526316,123.842105 L112.894737,123.842105 L112.894737,127.947368 L111.526316,127.947368 L111.526316,123.842105 Z M86.8947368,123.842105 L88.2631579,123.842105 L88.2631579,127.947368 L86.8947368,127.947368 L86.8947368,123.842105 Z" id="Shape" fill="#009ED4"></path>
                        <path d="M34.2105263,118.368421 C34.2105263,118.368421 50.8258947,114.855684 58.1578947,103.315789 C69.1456316,86.021 78.0848421,94.9732105 91,86.2105263 C98.7124211,80.9790526 107.356053,54.8832632 114.947368,55.4210526 L114.947368,118.368421 L34.2105263,118.368421 Z" id="Path" fill-opacity="0.24" fill="#009DD3"></path>
                        <path d="M34.2105263,118.368421 C34.2105263,118.368421 88.4109474,118.206947 114.947368,75.9473684 L114.947368,118.368421 L34.2105263,118.368421 Z" id="Path" fill="#009ED4"></path>
                        <path d="M34.2105263,118.368421 C34.2105263,118.368421 43.2783684,78.3202105 59.5263158,73.8947368 C72.6556316,70.3183684 74.1957895,81.8315789 84.8421053,80.0526316 C96.2205263,78.1498421 98.0316316,48.5789474 115.631579,48.5789474" id="Path" stroke="#FE6A02" stroke-width="1.5765963"></path>
                        <g id="Group" transform="translate(80.736842, 112.210526)" fill="#FFFFFF" fill-rule="nonzero" stroke="#000000" stroke-linejoin="round" stroke-width="1.5765963">
                            <rect id="rect" x="0" y="0" width="98.5263158" height="105.368421" rx="6.30638522"></rect>
                        </g>
                        <g id="rect-link" transform="translate(80.736842, 112.210526)" stroke="#FE6A02" stroke-linejoin="round" stroke-width="1.5765963">
                            <rect id="rect" x="0" y="0" width="98.5263158" height="105.368421" rx="6.30638522"></rect>
                        </g>
                        <path d="M150.975842,174.945105 L142.610684,174.945105 C142.251321,174.945105 141.96,174.653784 141.96,174.294421 L141.96,157.547 C141.96,157.187637 142.251321,156.896316 142.610684,156.896316 L150.975842,156.896316 C155.929219,156.939447 159.922,160.967146 159.922,165.920711 C159.922,170.874275 155.929219,174.901974 150.975842,174.945105 L150.975842,174.945105 Z M143.261368,173.645105 L150.975842,173.645105 C155.212415,173.605227 158.625836,170.159524 158.625836,165.922763 C158.625836,161.686002 155.212415,158.2403 150.975842,158.200421 L143.261368,158.200421 L143.261368,173.645105 L143.261368,173.645105 Z M178.446934,166.573789 L162.483995,166.573789 C162.263505,166.551545 162.091989,166.267147 162.091989,165.923789 C162.091989,165.580432 162.263505,165.296034 162.483995,165.273789 L178.446934,165.273789 C178.663712,165.302756 178.830187,165.584653 178.830187,165.922763 C178.830187,166.260874 178.663712,166.542771 178.446934,166.571737 L178.446934,166.573789 Z M110.636842,199.105263 L106.089579,199.105263 C105.852699,199.104145 105.6351,198.974515 105.52133,198.766742 C105.40756,198.558969 105.415555,198.305811 105.542211,198.105632 C108.443283,193.119223 108.443283,186.95904 105.542211,181.972632 C105.415188,181.772422 105.40699,181.519004 105.520807,181.311003 C105.634624,181.103003 105.852476,180.973278 106.089579,180.972316 L110.636842,180.972316 C116.666718,180.898411 122.187255,184.343502 124.770579,189.792474 C124.834924,189.950381 124.834924,190.127198 124.770579,190.285105 C122.187255,195.734077 116.666718,199.179168 110.636842,199.105263 Z M107.183632,197.805263 L110.636842,197.805263 C116.047352,197.895491 121.030509,194.875911 123.454842,190.038105 C121.063778,185.170066 116.05871,182.138279 110.636842,182.273684 L107.183632,182.273684 C109.62898,187.162067 109.629233,192.916665 107.184316,197.805263 L107.183632,197.805263 Z M110.636842,150.868421 L106.089579,150.868421 C105.852699,150.867303 105.6351,150.737673 105.52133,150.5299 C105.40756,150.322127 105.415555,150.068969 105.542211,149.868789 C108.443262,144.88213 108.443262,138.721764 105.542211,133.735105 C105.415672,133.534819 105.407722,133.281657 105.521446,133.073826 C105.63517,132.865996 105.852672,132.7362 106.089579,132.734789 L110.636842,132.734789 C116.666827,132.661181 122.18732,136.106512 124.770579,141.555632 C124.834924,141.713539 124.834924,141.890356 124.770579,142.048263 C122.186988,147.496997 116.666621,150.941982 110.636842,150.868421 L110.636842,150.868421 Z M107.182947,149.568421 L110.636842,149.568421 C116.059401,149.704413 121.065266,146.672199 123.456211,141.803316 C121.065528,136.93402 116.059667,133.901273 110.636842,134.036842 L107.182947,134.036842 C109.628942,138.925072 109.629196,144.679976 107.183632,149.568421 L107.182947,149.568421 Z" id="Shape" fill="#FD5E06"></path>
                        <path d="M107.527209,195.725947 L80.8912071,195.725947 C80.6592949,195.736932 80.4402957,195.615501 80.3211576,195.409866 C80.2020195,195.204231 80.2020195,194.947664 80.3211576,194.742029 C80.4402957,194.536394 80.6592949,194.414963 80.8912071,194.425947 L107.527209,194.425947 C107.863829,194.441891 108.1288,194.728184 108.1288,195.075947 C108.1288,195.423711 107.863829,195.710003 107.527209,195.725947 L107.527209,195.725947 Z" id="Path" fill="#FD5E06"></path>
                        <path d="M107.536823,185.652316 L80.8237805,185.652316 C80.490814,185.630071 80.231804,185.345674 80.231804,185.002316 C80.231804,184.658958 80.490814,184.374561 80.8237805,184.352316 L107.536823,184.352316 C107.86979,184.374561 108.1288,184.658958 108.1288,185.002316 C108.1288,185.345674 107.86979,185.630071 107.536823,185.652316 L107.536823,185.652316 Z" id="Path" fill="#FD5E06"></path>
                        <path d="M107.550302,137.418211 L81.8994213,137.418211 C81.5797181,137.395966 81.3310253,137.111568 81.3310253,136.768211 C81.3310253,136.424853 81.5797181,136.140455 81.8994213,136.118211 L107.548387,136.118211 C107.866135,136.142939 108.112141,136.426431 108.112141,136.767868 C108.112141,137.109306 107.866135,137.392798 107.548387,137.417526 L107.550302,137.418211 Z" id="Path" fill="#FD5E06"></path>
                        <polygon id="Path" fill="#009ED4" points="147.789474 91 151.894737 91 151.894737 92.3684211 147.789474 92.3684211"></polygon>
                        <path d="M74.5789474,123.842105 L74.5789474,127.947368 L73.2105263,127.947368 L73.2105263,123.842105 L74.5789474,123.842105 Z M62.2631579,123.842105 L62.2631579,127.947368 L60.8947368,127.947368 L60.8947368,123.842105 L62.2631579,123.842105 Z M48.5789474,123.842105 L48.5789474,127.947368 L47.2105263,127.947368 L47.2105263,123.842105 L48.5789474,123.842105 Z M36.2631579,123.842105 L36.2631579,127.947368 L34.8947368,127.947368 L34.8947368,123.842105 L36.2631579,123.842105 Z M31.4736842,115.631579 L31.4736842,117 L27.3684211,117 L27.3684211,115.631579 L31.4736842,115.631579 Z M151.894737,105.368421 L151.894737,106.736842 L147.789474,106.736842 L147.789474,105.368421 L151.894737,105.368421 Z M31.4736842,103.315789 L31.4736842,104.684211 L27.3684211,104.684211 L27.3684211,103.315789 L31.4736842,103.315789 Z M31.4736842,89.6315789 L31.4736842,91 L27.3684211,91 L27.3684211,89.6315789 L31.4736842,89.6315789 Z M31.4736842,77.3157895 L31.4736842,78.6842105 L27.3684211,78.6842105 L27.3684211,77.3157895 L31.4736842,77.3157895 Z M31.4736842,63.6315789 L31.4736842,65 L27.3684211,65 L27.3684211,63.6315789 L31.4736842,63.6315789 Z M31.4736842,51.3157895 L31.4736842,52.6842105 L27.3684211,52.6842105 L27.3684211,51.3157895 L31.4736842,51.3157895 Z" id="Path-7" fill="#009ED4"></path>
                        <polygon id="Path" fill="#009ED4" points="147.789474 78.6842105 151.894737 78.6842105 151.894737 80.0526316 147.789474 80.0526316"></polygon>
                        <path d="M107.550302,147.491842 L81.8994213,147.491842 C81.5797181,147.469597 81.3310253,147.1852 81.3310253,146.841842 C81.3310253,146.498484 81.5797181,146.214087 81.8994213,146.191842 L107.548387,146.191842 C107.866135,146.21657 108.112141,146.500063 108.112141,146.8415 C108.112141,147.182937 107.866135,147.46643 107.548387,147.491158 L107.550302,147.491842 Z" id="Path" fill="#FD5E06"></path>
                        <path d="M132.878474,190.689474 L124.169158,190.689474 C123.826521,190.667229 123.559989,190.382832 123.559989,190.039474 C123.559989,189.696116 123.826521,189.411719 124.169158,189.389474 L132.228474,189.389474 L132.228474,171.065632 C132.228292,170.893122 132.296694,170.727616 132.418612,170.60557 C132.540531,170.483523 132.705964,170.414947 132.878474,170.414947 L142.610684,170.414947 C142.953321,170.437192 143.219853,170.72159 143.219853,171.064947 C143.219853,171.408305 142.953321,171.692702 142.610684,171.714947 L133.529158,171.714947 L133.529158,190.036053 C133.529886,190.209099 133.461653,190.375307 133.339547,190.497926 C133.217441,190.620546 133.051521,190.689474 132.878474,190.689474 L132.878474,190.689474 Z" id="Path" fill="#FD5E06"></path>
                        <path d="M142.61,161.427158 L132.878474,161.427158 C132.705964,161.427158 132.540531,161.358582 132.418612,161.236535 C132.296694,161.114489 132.228292,160.948983 132.228474,160.776474 L132.228474,142.452632 L124.169158,142.452632 C123.826521,142.430387 123.559989,142.145989 123.559989,141.802632 C123.559989,141.459274 123.826521,141.174876 124.169158,141.152632 L132.878474,141.152632 C133.237837,141.152632 133.529158,141.443953 133.529158,141.803316 L133.529158,160.125105 L142.610684,160.125105 C142.958454,160.141058 143.232205,160.427654 143.232205,160.775789 C143.232205,161.123925 142.958454,161.410521 142.610684,161.426474 L142.61,161.427158 Z" id="Path" fill="#FD5E06"></path>
                        <path d="M161.06596,163.62577 C162.330091,163.631858 163.351707,164.658275 163.351842,165.922421 C163.340177,167.198872 162.297901,168.225236 161.021421,168.217263 L161.021421,168.219316 C159.75741,168.200864 158.745904,167.164482 158.758161,165.900396 C158.770417,164.63631 159.801829,163.619736 161.06596,163.62577 Z M161.021421,164.925526 L161.021421,164.927579 C160.475846,164.944461 160.045604,165.397507 160.056897,165.943226 C160.068191,166.488946 160.516807,166.923805 161.062614,166.918101 C161.608421,166.912397 162.047851,166.468258 162.047737,165.922421 C162.038362,165.364267 161.579612,164.918667 161.021421,164.925526 Z" id="Combined-Shape" fill="#FD5E06"></path>
                        <polygon id="Path" fill="#009ED4" points="219.631579 151.96815 221 151.96815 221 155.315789 219.631579 155.315789"></polygon>
                        <polygon id="Path" fill="#009ED4" points="205.263158 151.96815 206.631579 151.96815 206.631579 155.315789 205.263158 155.315789"></polygon>
                        <polygon id="Path" fill="#009ED4" points="190.894737 151.96815 192.263158 151.96815 192.263158 155.315789 190.894737 155.315789"></polygon>
                        <polygon id="Path" fill="#009ED4" points="231.947368 151.96815 233.315789 151.96815 233.315789 155.315789 231.947368 155.315789"></polygon>
                    </g>
                </g>
            </g>
        </g>
    </g>
</svg>