<?xml version="1.0" encoding="UTF-8"?>
<svg width="262px" height="262px" viewBox="0 0 262 262" version="1.1" xmlns="http://www.w3.org/2000/svg" xmlns:xlink="http://www.w3.org/1999/xlink">
    <!-- Generator: Sketch 59.1 (86144) - https://sketch.com -->
    <title>learning</title>
    <desc>Created with Sketch.</desc>
    <g id="Page-1" stroke="none" stroke-width="1" fill="none" fill-rule="evenodd">
        <g id="Technology-Page" transform="translate(-134.000000, -1077.000000)">
            <g id="HOW-IT-WORKS" transform="translate(1.000000, 553.000000)">
                <g id="Learning" transform="translate(134.000000, 525.000000)">
                    <g id="learning">
                        <rect id="Rectangle" stroke-opacity="0.39" stroke="#D2DDE5" stroke-width="0.788298152" fill="#FFFFFF" fill-rule="nonzero" stroke-linejoin="round" x="0" y="0" width="260" height="260" rx="18.9191556"></rect>
                        <rect id="Rectangle" stroke-opacity="0.2" stroke="#009FD4" stroke-width="2.36489446" fill-opacity="0.08" fill="#009FD4" fill-rule="nonzero" stroke-linejoin="round" x="7" y="7" width="246.315789" height="246.315789" rx="12.6127704"></rect>
                        <g id="cloud" transform="translate(65.000000, 41.000000)">
                            <g id="Group-17">
                                <g id="cloud">
                                    <g id="Group-14" transform="translate(0.749622, 0.306793)">
                                        <path d="M111.038604,35.0220352 C111.050768,34.6530519 111.066987,34.2848795 111.066987,33.9126524 C111.007722,18.3299011 100.374453,4.77726047 85.2533576,1.01187402 C70.1322626,-2.75351243 54.3851708,4.23001035 47.0252668,17.9652738 C40.6672388,14.179167 32.7088919,14.3407802 26.5098142,18.381889 C20.3107364,22.4229977 16.9512821,29.6393313 17.849633,36.98454 C5.5110017,41.3930707 -1.85564699,54.051088 0.406475844,66.9568915 C2.66859868,79.8626951 13.9012062,89.260644 27.0036634,89.2101247 L100.780867,89.2101247 C114.301413,89.2667389 125.937414,79.6679715 128.45221,66.3832358 C130.967005,53.0985001 123.644457,39.9108869 111.038604,35.0220352 Z" id="path" fill="#FFFFFF" fill-rule="nonzero"></path>
                                        <g id="path-link" transform="translate(0.310854, 0.379397)" stroke="#0077B5" stroke-linejoin="round" stroke-width="1.7">
                                            <path d="M111.038604,35.0220352 C111.050768,34.6530519 111.066987,34.2848795 111.066987,33.9126524 C111.007722,18.3299011 100.374453,4.77726047 85.2533576,1.01187402 C70.1322626,-2.75351243 54.3851708,4.23001035 47.0252668,17.9652738 C40.6672388,14.179167 32.7088919,14.3407802 26.5098142,18.381889 C20.3107364,22.4229977 16.9512821,29.6393313 17.849633,36.98454 C5.5110017,41.3930707 -1.85564699,54.051088 0.406475844,66.9568915 C2.66859868,79.8626951 13.9012062,89.260644 27.0036634,89.2101247 L100.780867,89.2101247 C114.301413,89.2667389 125.937414,79.6679715 128.45221,66.3832358 C130.967005,53.0985001 123.644457,39.9108869 111.038604,35.0220352 Z" id="path"></path>
                                        </g>
                                    </g>
                                </g>
                            </g>
                        </g>
                        <g id="processing" transform="translate(40.000000, 117.000000)">
                            <rect id="Rectangle" stroke="#0077B5" stroke-width="1.7" fill="#FFFFFF" x="0.85" y="0.85" width="179.3" height="101.3" rx="8"></rect>
                            <g id="Gear" transform="translate(15.000000, 28.000000)" fill="#009ED4" fill-rule="nonzero" stroke="#009ED4" stroke-width="1.5">
                                <path d="M25.6336562,0.425726088 C24.3779149,0.432633347 23.1236802,0.531873549 21.8825825,0.72357929 C21.723675,0.7487164 21.5903405,0.856909362 21.5330142,1.00723292 C21.1263295,2.06145781 21.1380385,3.23367587 20.7656369,4.30519598 C20.3932112,5.37665583 19.7099054,6.37549987 17.8172542,7.15938905 C15.92623,7.94267562 14.737018,7.72085089 13.7166001,7.22765394 C12.6961823,6.73443289 11.8760756,5.89875447 10.8447503,5.43979844 C10.6967934,5.37332455 10.5244928,5.39176962 10.3939598,5.48805632 C8.37469785,6.98719618 6.58852968,8.77625692 5.09041428,10.7963022 C4.99334797,10.9263894 4.97399905,11.098719 5.03980016,11.2470927 C5.49918405,12.2776949 6.33718256,13.0975606 6.83000588,14.1177976 C7.32284125,15.1380347 7.54236397,16.3268851 6.75938474,18.2172464 C5.97676106,20.106764 4.98165327,20.7914618 3.91224233,21.1644239 C2.84283139,21.5373618 1.67121596,21.5265568 0.617834734,21.929451 C0.467378586,21.98623 0.35874705,22.1190994 0.332999969,22.2778382 C0.137991865,23.5199 0.0365225687,24.7740142 0.0257880645,26.0312621 C0.0257880645,26.0336163 0.0257880645,26.0359706 0.0257880645,26.0383248 C0.0335456218,27.2940661 0.131899369,28.5483009 0.323581005,29.7893985 C0.348718115,29.948306 0.456911077,30.0816405 0.607234633,30.1389668 C1.66145953,30.5456334 2.83367758,30.5339305 3.90519769,30.9063441 C4.97665754,31.2787578 5.97544132,31.9620756 6.75939077,33.8547269 C7.54267733,35.745751 7.32088274,36.9349027 6.82765566,37.9553809 C6.33441653,38.9757987 5.49875619,39.7959657 5.03980016,40.8272307 C4.97332626,40.9751876 4.99177133,41.1474882 5.08805803,41.2780213 C6.58719789,43.2972832 8.37625864,45.0858618 10.3963039,46.5839169 C10.526837,46.6802036 10.6991376,46.6986487 10.8470945,46.6321748 C11.8777569,46.172803 12.6987675,45.3372029 13.7189443,44.8443193 C14.7391814,44.35149 15.9268868,44.131901 17.8172481,44.9149405 C19.7067658,45.6976244 20.3915238,46.6926719 20.7644256,47.7620829 C21.1373756,48.8314938 21.1253714,50.0031092 21.5283078,51.0564905 C21.5859723,51.2063576 21.7192431,51.3140508 21.8778761,51.338969 C23.1199379,51.5339349 24.3740521,51.6377906 25.6313,51.6485311 C25.6336542,51.6485311 25.6360085,51.6485311 25.6383627,51.6485311 C26.894104,51.6416835 28.1483387,51.539931 29.3894363,51.3483819 C29.5477958,51.3236834 29.6810032,51.2164892 29.7390046,51.0670785 C30.1456893,50.0128536 30.1339804,48.8382251 30.506382,47.7667652 C30.8787836,46.6953054 31.5621135,45.6988718 33.4547647,44.9149224 C35.3457889,44.1316358 36.5361459,44.3511284 37.5565637,44.8443012 C38.5769816,45.3375645 39.3970883,46.1755509 40.4284136,46.634507 C40.5767863,46.7003098 40.7491158,46.6809632 40.8792041,46.5838989 C42.898466,45.084759 44.6858394,43.2956983 46.1838946,41.275653 C46.2805698,41.1453421 46.2994656,40.9730272 46.2333275,40.8248624 C45.7739437,39.7942 44.9371504,38.9767448 44.4442668,37.9565078 C43.9514314,36.9362707 43.7319087,35.7450701 44.5148879,33.8547088 C45.2975116,31.9651911 46.2926194,31.2804933 47.3620303,30.9075313 C48.4314413,30.5345934 49.6030567,30.5465976 50.6564379,30.1436491 C50.806305,30.0859846 50.9139983,29.9527138 50.9389165,29.7940808 C51.1339246,28.552019 51.2377501,27.2979048 51.2484786,26.0406569 C51.2484786,26.0383027 51.2484786,26.0359484 51.2484786,26.0335942 C51.240721,24.7778529 51.1400291,23.5236182 50.9483294,22.2825206 C50.9236309,22.1241611 50.8164367,21.9909537 50.667026,21.9329523 C49.6128011,21.5262615 48.4382328,21.5379885 47.3667127,21.1655749 C46.2952529,20.7931612 45.2988193,20.1098434 44.5148699,18.2171922 C43.7315833,16.326168 43.9510036,15.1370163 44.4442487,14.1165382 C44.9374939,13.0961203 45.7754984,12.2760136 46.2344544,11.2446883 C46.3002573,11.0963156 46.2809107,10.9239861 46.1838463,10.7938978 C44.6847065,8.77463587 42.8967907,6.98846771 40.8768057,5.4903523 C40.7467185,5.39328599 40.5743889,5.37393707 40.4260152,5.43973818 C39.395413,5.89911002 38.5766923,6.73712058 37.5565155,7.2299439 C36.5362784,7.72279735 35.3450778,7.94242252 33.4547165,7.15932277 C31.5651989,6.37669908 30.8816461,5.38159129 30.508684,4.31218035 C30.135734,3.24276942 30.1465631,2.07115398 29.7436569,1.01777276 C29.6866719,0.866990358 29.553273,0.758294407 29.3940886,0.732937992 C28.1520268,0.537972072 26.8979125,0.43644854 25.6406647,0.425726088 C25.6383105,0.425726088 25.6359562,0.425726088 25.633602,0.425726088 L25.6336562,0.425726088 Z M25.6360064,12.749999 C32.979544,12.749999 38.921988,18.6925033 38.921988,26.0359806 C38.921988,33.3795181 32.9794234,39.3243727 25.6360064,39.3243727 C18.2925894,39.3243727 12.3500248,33.3794579 12.3500248,26.0359806 C12.3500248,18.6924431 18.2925894,12.749999 25.6360064,12.749999 Z" id="Shape"></path>
                            </g>
                            <g id="Group-19" transform="translate(87.000000, 28.000000)" fill="#009ED4" font-family="Helvetica" font-size="16" font-weight="normal" line-spacing="16">
                                <text id="0-1-0-1-0-0">
                                    <tspan x="0" y="15">0 1 0 1 0 0 </tspan>
                                </text>
                                <text id="0-1-0-1-0-0-copy">
                                    <tspan x="0" y="55">0 1 0 1 0 0 </tspan>
                                </text>
                                <text id="1-1-0-1-1-0">
                                    <tspan x="0" y="35">1 1 0 1 1 0 </tspan>
                                </text>
                            </g>
                        </g>
                        <g id="upload" transform="translate(111.000000, 97.000000)">
                            <circle id="Oval" stroke="#0077B5" stroke-width="1.7" fill="#FFFFFF" cx="20" cy="20" r="20"></circle>
                            <g id="Group-15" transform="translate(15.000000, 9.000000)" stroke="#FE6A02" stroke-linecap="round" stroke-width="2.3">
                                <line x1="4.58902726" y1="21.0694101" x2="4.58902726" y2="-5.68434189e-14" id="Path-2"></line>
                                <polyline id="Path-4" points="0 5.00023498 4.58902726 0 9.0334717 5.00023498"></polyline>
                            </g>
                        </g>
                    </g>
                </g>
            </g>
        </g>
    </g>
</svg>